<svg width="1440" height="312" viewBox="0 0 1440 312" fill="none" xmlns="http://www.w3.org/2000/svg">
<g clip-path="url(#clip0_2_80)">
<path d="M1276 79.1826C1417.13 88.8418 1553.79 183.824 1573.35 231.047C1592.91 278.806 1490.91 341.054 1535.62 413.498C1580.34 486.479 1771.76 568.582 1768.97 627.61C1767.57 687.176 1574.75 723.129 1388.91 727.959C1203.07 732.788 1024.22 707.031 880.297 685.029C734.98 663.028 623.197 644.782 572.895 609.902C522.593 574.485 533.771 522.969 423.386 485.942C313 448.379 82.4483 426.377 -37.7181 377.008C-157.885 328.175 -165.159 186.675 -92.5 125.5C-18.444 64.3247 151.531 129.256 322 125.5C492.469 122.28 649.518 6.54783 813 20.5C976.482 34.4522 1134.88 68.9868 1276 79.1826Z" fill="#5779A1"/>
</g>
<defs>
<clipPath id="clip0_2_80">
<rect width="1440" height="312" fill="white"/>
</clipPath>
</defs>
</svg>
