<svg width="780" height="537" viewBox="0 0 780 537" fill="none" xmlns="http://www.w3.org/2000/svg">
<g clip-path="url(#clip0_2_43)">
<path d="M606.568 -15.176C628.072 6.84 628.072 54.968 658.28 96.44C688.488 137.912 748.904 172.728 785.768 233.656C822.12 294.584 835.944 381.112 801.128 432.824C766.312 484.536 683.88 500.92 616.296 479.416C549.224 457.4 497.512 398.008 440.68 372.92C383.336 348.344 321.384 358.584 251.752 340.664C182.12 322.744 104.808 276.664 82.28 214.2C60.264 151.736 93.032 72.376 137.576 8.376C181.608 -55.624 237.416 -105.288 299.368 -108.872C360.808 -112.456 428.904 -70.984 484.712 -52.04C541.032 -33.096 584.552 -37.192 606.568 -15.176Z" fill="#51E5FF"/>
<path opacity="0.52" d="M614.322 5.91428C635.826 27.9303 635.826 76.0583 666.034 117.53C696.242 159.002 756.658 193.818 793.522 254.746C829.874 315.674 843.698 402.202 808.882 453.914C774.066 505.626 691.634 522.01 624.05 500.506C556.978 478.49 505.266 419.098 448.434 394.01C391.09 369.434 329.138 379.674 259.506 361.754C189.874 343.834 112.562 297.754 90.0339 235.29C68.0179 172.826 100.786 93.4663 145.33 29.4663C189.362 -34.5337 245.17 -84.1977 307.122 -87.7817C368.562 -91.3657 436.658 -49.8937 492.466 -30.9497C548.786 -12.0057 592.306 -16.1017 614.322 5.91428Z" fill="#51E5FF"/>
<path d="M665.393 -86.7728C728.722 -75.0096 779.873 -16.6462 815.435 53.4803C851.484 124.059 871.457 206.401 841.253 267.932C810.563 329.01 729.696 368.824 656.137 405.47C582.577 441.665 516.812 474.692 444.227 483.741C371.154 492.337 291.749 476.954 260.572 428.092C229.881 378.777 247.419 295.53 217.215 223.141C187.012 151.205 108.581 90.1271 104.197 35.8356C99.8123 -18.9084 169.475 -66.8659 239.624 -76.3669C309.774 -85.8679 380.41 -56.46 453.483 -59.627C526.555 -62.794 602.063 -98.0835 665.393 -86.7728Z" fill="#55ADF5"/>
</g>
<defs>
<clipPath id="clip0_2_43">
<rect width="780" height="537" fill="white"/>
</clipPath>
</defs>
</svg>
