<svg width="1245" height="1591" viewBox="0 0 1245 1591" fill="none" xmlns="http://www.w3.org/2000/svg">
<path d="M582.05 -97.8101C558.079 19.8683 349.086 170.801 249.413 277.827C149.74 384.852 158.52 447.54 142.273 536.66C126.462 627.077 85.1927 744.791 30.2745 746.636C-24.6436 748.481 -94.0764 634.025 -230.368 601.877C-367.955 570.163 -572.832 621.622 -691.879 563.49C-811.357 506.223 -845.872 338.935 -802.485 199.593C-759.099 60.2513 -638.678 -51.5747 -508.565 -78.6596C-378.453 -105.744 -239.514 -48.5188 -105.53 -85.5583C28.023 -121.732 156.191 -251.305 301.014 -275.393C445.405 -298.616 606.021 -215.488 582.05 -97.8101Z" fill="#5FD8D8"/>
</svg>
